<?xml version="1.0" encoding="UTF-8"?>
<svg xmlns="http://www.w3.org/2000/svg" xmlns:xlink="http://www.w3.org/1999/xlink" width="25.391pt" height="16.86pt" viewBox="0 0 25.391 16.86">
<defs>
<g>
<g id="glyph-0-0">
<path d="M 1.484375 -3.171875 L 2.671875 -3.171875 L 2.671875 -3.4375 L 1.484375 -3.4375 L 1.484375 -4.90625 L 1.234375 -4.90625 C 1.234375 -4.171875 0.90625 -3.421875 0.15625 -3.390625 L 0.15625 -3.171875 L 0.875 -3.171875 L 0.875 -1 C 0.875 -0.0625 1.59375 0.078125 1.953125 0.078125 C 2.5 0.078125 2.8125 -0.390625 2.8125 -1 L 2.8125 -1.4375 L 2.5625 -1.4375 L 2.5625 -1.015625 C 2.5625 -0.46875 2.3125 -0.171875 2.015625 -0.171875 C 1.484375 -0.171875 1.484375 -0.859375 1.484375 -0.984375 Z M 1.484375 -3.171875 "/>
</g>
<g id="glyph-0-1">
<path d="M 3.296875 -1.8125 C 3.46875 -1.8125 3.515625 -1.8125 3.515625 -2 C 3.515625 -2.703125 3.125 -3.546875 2 -3.546875 C 1.015625 -3.546875 0.234375 -2.734375 0.234375 -1.75 C 0.234375 -0.71875 1.09375 0.078125 2.109375 0.078125 C 3.109375 0.078125 3.515625 -0.765625 3.515625 -0.953125 C 3.515625 -0.984375 3.484375 -1.0625 3.390625 -1.0625 C 3.296875 -1.0625 3.28125 -1.015625 3.265625 -0.96875 C 2.984375 -0.1875 2.296875 -0.171875 2.15625 -0.171875 C 1.796875 -0.171875 1.421875 -0.328125 1.1875 -0.703125 C 0.953125 -1.0625 0.953125 -1.578125 0.953125 -1.8125 Z M 0.953125 -2.03125 C 1.03125 -3.140625 1.703125 -3.328125 2 -3.328125 C 2.9375 -3.328125 2.96875 -2.203125 2.96875 -2.03125 Z M 0.953125 -2.03125 "/>
</g>
<g id="glyph-0-2">
<path d="M 2.453125 -1.859375 C 2.671875 -2.140625 2.90625 -2.421875 3.140625 -2.671875 C 3.40625 -2.953125 3.6875 -3.15625 4.1875 -3.171875 L 4.1875 -3.4375 C 3.875 -3.40625 3.859375 -3.40625 3.5 -3.40625 C 3.46875 -3.40625 3 -3.40625 2.75 -3.4375 L 2.75 -3.171875 C 2.90625 -3.15625 2.9375 -3.0625 2.9375 -2.953125 C 2.9375 -2.859375 2.890625 -2.75 2.796875 -2.640625 L 2.296875 -2.0625 L 1.671875 -2.8125 C 1.5625 -2.921875 1.5625 -2.96875 1.5625 -2.984375 C 1.5625 -3.046875 1.625 -3.15625 1.8125 -3.171875 L 1.8125 -3.4375 C 1.5 -3.40625 1.046875 -3.40625 0.96875 -3.40625 C 0.828125 -3.40625 0.421875 -3.40625 0.171875 -3.4375 L 0.171875 -3.171875 C 0.71875 -3.171875 0.71875 -3.15625 1.140625 -2.671875 L 1.953125 -1.6875 L 1.234375 -0.828125 C 1.03125 -0.609375 0.734375 -0.28125 0.140625 -0.265625 L 0.140625 0 C 0.4375 -0.03125 0.484375 -0.03125 0.828125 -0.03125 C 0.84375 -0.03125 1.328125 -0.03125 1.578125 0 L 1.578125 -0.265625 C 1.46875 -0.28125 1.390625 -0.328125 1.390625 -0.484375 C 1.390625 -0.625 1.484375 -0.734375 1.5 -0.765625 C 1.703125 -1.015625 1.921875 -1.25 2.125 -1.484375 L 2.78125 -0.703125 C 2.9375 -0.515625 2.9375 -0.5 2.9375 -0.453125 C 2.9375 -0.375 2.890625 -0.265625 2.6875 -0.265625 L 2.6875 0 C 3.03125 -0.03125 3.390625 -0.03125 3.546875 -0.03125 C 3.6875 -0.03125 4.09375 -0.03125 4.328125 0 L 4.328125 -0.265625 C 3.84375 -0.265625 3.765625 -0.296875 3.546875 -0.546875 Z M 2.453125 -1.859375 "/>
</g>
<g id="glyph-1-0">
<path d="M 7.875 -2.75 C 8.078125 -2.75 8.296875 -2.75 8.296875 -2.984375 C 8.296875 -3.234375 8.078125 -3.234375 7.875 -3.234375 L 1.40625 -3.234375 C 1.203125 -3.234375 0.984375 -3.234375 0.984375 -2.984375 C 0.984375 -2.75 1.203125 -2.75 1.40625 -2.75 Z M 7.875 -2.75 "/>
</g>
<g id="glyph-1-1">
<path d="M 9.96875 -2.75 C 9.3125 -2.25 8.984375 -1.75 8.890625 -1.609375 C 8.359375 -0.78125 8.265625 -0.03125 8.265625 -0.015625 C 8.265625 0.125 8.40625 0.125 8.5 0.125 C 8.703125 0.125 8.71875 0.109375 8.765625 -0.109375 C 9.03125 -1.28125 9.734375 -2.28125 11.09375 -2.828125 C 11.234375 -2.875 11.265625 -2.90625 11.265625 -2.984375 C 11.265625 -3.078125 11.203125 -3.109375 11.171875 -3.125 C 10.65625 -3.328125 9.203125 -3.921875 8.75 -5.921875 C 8.71875 -6.078125 8.703125 -6.109375 8.5 -6.109375 C 8.40625 -6.109375 8.265625 -6.109375 8.265625 -5.96875 C 8.265625 -5.9375 8.359375 -5.1875 8.875 -4.390625 C 9.109375 -4.03125 9.453125 -3.609375 9.96875 -3.234375 L 1.09375 -3.234375 C 0.875 -3.234375 0.65625 -3.234375 0.65625 -2.984375 C 0.65625 -2.75 0.875 -2.75 1.09375 -2.75 Z M 9.96875 -2.75 "/>
</g>
</g>
</defs>
<g fill="rgb(100%, 100%, 100%)" fill-opacity="1">
<use xlink:href="#glyph-0-0" x="4.58" y="8.09"/>
<use xlink:href="#glyph-0-1" x="7.873245" y="8.09"/>
<use xlink:href="#glyph-0-2" x="11.636727" y="8.09"/>
<use xlink:href="#glyph-0-0" x="16.106359" y="8.09"/>
</g>
<g fill="rgb(100%, 100%, 100%)" fill-opacity="1">
<use xlink:href="#glyph-1-0" x="1.993" y="14.867"/>
</g>
<g fill="rgb(100%, 100%, 100%)" fill-opacity="1">
<use xlink:href="#glyph-1-0" x="6.712913" y="14.867"/>
</g>
<g fill="rgb(100%, 100%, 100%)" fill-opacity="1">
<use xlink:href="#glyph-1-1" x="11.444781" y="14.867"/>
</g>
</svg>
