<?xml version="1.0" encoding="UTF-8"?>
<svg xmlns="http://www.w3.org/2000/svg" xmlns:xlink="http://www.w3.org/1999/xlink" width="15.94pt" height="10.392pt" viewBox="0 0 15.94 10.392">
<defs>
<g>
<g id="glyph-0-0">
<path d="M 11.265625 -3.90625 L 11.265625 -4.140625 C 10.609375 -4.46875 9.84375 -5.125 9.46875 -6.140625 L 9.09375 -6.140625 C 9.1875 -5.84375 9.421875 -5.109375 10.25 -4.390625 L 1.09375 -4.390625 C 0.875 -4.390625 0.671875 -4.390625 0.671875 -4.140625 C 0.671875 -3.90625 0.890625 -3.90625 1.09375 -3.90625 Z M 10.859375 -1.59375 C 11.0625 -1.59375 11.265625 -1.59375 11.265625 -1.828125 C 11.265625 -2.0625 11.0625 -2.0625 10.859375 -2.0625 L 0.671875 -2.0625 L 0.671875 -1.828125 C 1.34375 -1.5 2.09375 -0.84375 2.46875 0.171875 L 2.84375 0.171875 C 2.75 -0.125 2.515625 -0.859375 1.703125 -1.59375 Z M 10.859375 -1.59375 "/>
</g>
</g>
</defs>
<g fill="rgb(100%, 100%, 100%)" fill-opacity="1">
<use xlink:href="#glyph-0-0" x="1.993" y="8.238"/>
</g>
</svg>
