<?xml version="1.0" encoding="UTF-8"?>
<svg xmlns="http://www.w3.org/2000/svg" xmlns:xlink="http://www.w3.org/1999/xlink" width="23.653pt" height="11.338pt" viewBox="0 0 23.653 11.338">
<defs>
<g>
<g id="glyph-0-0">
<path d="M 3.0625 -4.8125 L 4.046875 -4.8125 C 4.25 -4.8125 4.375 -4.8125 4.375 -5.015625 C 4.375 -5.15625 4.296875 -5.15625 4.09375 -5.15625 L 3.140625 -5.15625 L 3.625 -7.03125 C 3.640625 -7.046875 3.640625 -7.15625 3.640625 -7.1875 C 3.640625 -7.296875 3.5625 -7.46875 3.328125 -7.46875 C 3.03125 -7.46875 2.921875 -7.203125 2.875 -7.03125 L 2.421875 -5.15625 L 1.40625 -5.15625 C 1.1875 -5.15625 1.078125 -5.15625 1.078125 -4.921875 C 1.078125 -4.8125 1.171875 -4.8125 1.359375 -4.8125 L 2.328125 -4.8125 L 1.46875 -1.359375 C 1.40625 -1.125 1.40625 -0.984375 1.40625 -0.9375 C 1.40625 -0.375 1.734375 0.125 2.390625 0.125 C 3.5625 0.125 4.15625 -1.65625 4.15625 -1.703125 C 4.15625 -1.8125 4.046875 -1.8125 4 -1.8125 C 3.875 -1.8125 3.859375 -1.796875 3.796875 -1.65625 C 3.65625 -1.296875 3.1875 -0.125 2.421875 -0.125 C 2.234375 -0.125 2.0625 -0.203125 2.0625 -0.59375 C 2.0625 -0.78125 2.109375 -1.046875 2.15625 -1.234375 Z M 3.0625 -4.8125 "/>
</g>
<g id="glyph-0-1">
<path d="M 2.75 -2.765625 C 3.171875 -2.765625 5.421875 -2.765625 5.421875 -4.28125 C 5.421875 -4.8125 4.96875 -5.265625 4.265625 -5.265625 C 3.03125 -5.265625 1.359375 -4.046875 1.359375 -1.953125 C 1.359375 -0.734375 1.984375 0.125 3 0.125 C 4.484375 0.125 5.46875 -1.09375 5.46875 -1.25 C 5.46875 -1.34375 5.359375 -1.4375 5.296875 -1.4375 C 5.265625 -1.4375 5.25 -1.421875 5.15625 -1.3125 C 4.515625 -0.453125 3.625 -0.125 3.015625 -0.125 C 2.21875 -0.125 2.109375 -1.0625 2.109375 -1.453125 C 2.109375 -1.96875 2.203125 -2.3125 2.3125 -2.765625 Z M 2.390625 -3.015625 C 2.875 -4.90625 4.046875 -5.03125 4.25 -5.03125 C 4.734375 -5.03125 5.015625 -4.703125 5.015625 -4.296875 C 5.015625 -3.015625 3.03125 -3.015625 2.640625 -3.015625 Z M 2.390625 -3.015625 "/>
</g>
<g id="glyph-0-2">
<path d="M 5.546875 -4.859375 C 5.28125 -4.796875 5.125 -4.578125 5.125 -4.34375 C 5.125 -4.09375 5.3125 -4 5.5 -4 C 5.71875 -4 6.03125 -4.140625 6.03125 -4.578125 C 6.03125 -5.140625 5.375 -5.265625 5.03125 -5.265625 C 4.4375 -5.265625 4.0625 -4.78125 3.890625 -4.453125 C 3.75 -4.859375 3.375 -5.265625 2.78125 -5.265625 C 1.59375 -5.265625 0.984375 -3.6875 0.984375 -3.4375 C 0.984375 -3.328125 1.09375 -3.328125 1.15625 -3.328125 C 1.296875 -3.328125 1.296875 -3.359375 1.359375 -3.546875 C 1.640625 -4.453125 2.21875 -5.03125 2.765625 -5.03125 C 3.03125 -5.03125 3.3125 -4.84375 3.3125 -4.265625 C 3.3125 -4 3.1875 -3.515625 3.09375 -3.140625 C 3.03125 -2.875 2.625 -1.265625 2.609375 -1.171875 C 2.46875 -0.765625 2.171875 -0.125 1.640625 -0.125 C 1.578125 -0.125 1.3125 -0.125 1.09375 -0.28125 C 1.453125 -0.375 1.53125 -0.671875 1.53125 -0.8125 C 1.53125 -1.046875 1.359375 -1.15625 1.15625 -1.15625 C 0.84375 -1.15625 0.609375 -0.890625 0.609375 -0.578125 C 0.609375 -0.09375 1.140625 0.125 1.609375 0.125 C 2.109375 0.125 2.484375 -0.203125 2.75 -0.703125 C 2.84375 -0.421875 3.15625 0.125 3.875 0.125 C 5.046875 0.125 5.65625 -1.46875 5.65625 -1.703125 C 5.65625 -1.8125 5.546875 -1.8125 5.5 -1.8125 C 5.359375 -1.8125 5.359375 -1.796875 5.296875 -1.59375 C 5.046875 -0.78125 4.484375 -0.125 3.890625 -0.125 C 3.390625 -0.125 3.328125 -0.671875 3.328125 -0.890625 C 3.328125 -1.140625 3.421875 -1.515625 3.5625 -2.109375 C 3.640625 -2.359375 3.75 -2.859375 3.84375 -3.1875 C 4.0625 -4.109375 4.296875 -5.03125 5.015625 -5.03125 C 5.078125 -5.03125 5.328125 -5.03125 5.546875 -4.859375 Z M 5.546875 -4.859375 "/>
</g>
</g>
</defs>
<g fill="rgb(100%, 100%, 100%)" fill-opacity="1">
<use xlink:href="#glyph-0-0" x="1.993" y="9.345"/>
<use xlink:href="#glyph-0-1" x="5.87844" y="9.345"/>
<use xlink:href="#glyph-0-2" x="11.25828" y="9.345"/>
<use xlink:href="#glyph-0-0" x="16.63812" y="9.345"/>
</g>
</svg>
