<?xml version="1.0" encoding="UTF-8"?>
<svg xmlns="http://www.w3.org/2000/svg" xmlns:xlink="http://www.w3.org/1999/xlink" width="31.673pt" height="15.94pt" viewBox="0 0 31.673 15.94">
<defs>
<g>
<g id="glyph-0-0">
<path d="M 3.375 -7.375 C 3.375 -7.859375 3.6875 -8.625 5 -8.703125 C 5.0625 -8.71875 5.109375 -8.765625 5.109375 -8.828125 C 5.109375 -8.96875 5.015625 -8.96875 4.875 -8.96875 C 3.6875 -8.96875 2.59375 -8.359375 2.578125 -7.46875 L 2.578125 -4.75 C 2.578125 -4.28125 2.578125 -3.890625 2.109375 -3.5 C 1.6875 -3.15625 1.234375 -3.125 0.96875 -3.125 C 0.90625 -3.109375 0.859375 -3.0625 0.859375 -2.984375 C 0.859375 -2.875 0.9375 -2.875 1.046875 -2.859375 C 1.84375 -2.8125 2.421875 -2.375 2.546875 -1.796875 C 2.578125 -1.65625 2.578125 -1.640625 2.578125 -1.203125 L 2.578125 1.15625 C 2.578125 1.65625 2.578125 2.046875 3.15625 2.5 C 3.625 2.859375 4.40625 2.984375 4.875 2.984375 C 5.015625 2.984375 5.109375 2.984375 5.109375 2.859375 C 5.109375 2.734375 5.03125 2.734375 4.90625 2.71875 C 4.15625 2.671875 3.578125 2.296875 3.421875 1.6875 C 3.375 1.578125 3.375 1.546875 3.375 1.125 L 3.375 -1.390625 C 3.375 -1.9375 3.28125 -2.140625 2.90625 -2.515625 C 2.65625 -2.765625 2.3125 -2.890625 1.96875 -2.984375 C 2.953125 -3.265625 3.375 -3.8125 3.375 -4.5 Z M 3.375 -7.375 "/>
</g>
<g id="glyph-0-1">
<path d="M 2.578125 1.40625 C 2.578125 1.875 2.265625 2.640625 0.96875 2.71875 C 0.90625 2.734375 0.859375 2.78125 0.859375 2.859375 C 0.859375 2.984375 0.984375 2.984375 1.09375 2.984375 C 2.265625 2.984375 3.375 2.40625 3.375 1.5 L 3.375 -1.234375 C 3.375 -1.703125 3.375 -2.078125 3.859375 -2.46875 C 4.28125 -2.828125 4.734375 -2.84375 5 -2.859375 C 5.0625 -2.875 5.109375 -2.921875 5.109375 -2.984375 C 5.109375 -3.109375 5.03125 -3.109375 4.90625 -3.125 C 4.125 -3.171875 3.546875 -3.59375 3.421875 -4.1875 C 3.375 -4.3125 3.375 -4.34375 3.375 -4.765625 L 3.375 -7.140625 C 3.375 -7.640625 3.375 -8.015625 2.8125 -8.46875 C 2.328125 -8.84375 1.5 -8.96875 1.09375 -8.96875 C 0.984375 -8.96875 0.859375 -8.96875 0.859375 -8.828125 C 0.859375 -8.71875 0.9375 -8.71875 1.046875 -8.703125 C 1.8125 -8.65625 2.390625 -8.265625 2.546875 -7.65625 C 2.578125 -7.546875 2.578125 -7.53125 2.578125 -7.09375 L 2.578125 -4.59375 C 2.578125 -4.046875 2.671875 -3.84375 3.0625 -3.453125 C 3.3125 -3.203125 3.65625 -3.078125 4 -2.984375 C 3.015625 -2.71875 2.578125 -2.15625 2.578125 -1.46875 Z M 2.578125 1.40625 "/>
</g>
<g id="glyph-1-0">
<path d="M 2.203125 -0.578125 C 2.203125 -0.921875 1.90625 -1.15625 1.625 -1.15625 C 1.28125 -1.15625 1.046875 -0.875 1.046875 -0.578125 C 1.046875 -0.234375 1.328125 0 1.609375 0 C 1.953125 0 2.203125 -0.28125 2.203125 -0.578125 Z M 2.203125 -0.578125 "/>
</g>
</g>
</defs>
<g fill="rgb(100%, 100%, 100%)" fill-opacity="1">
<use xlink:href="#glyph-0-0" x="1.993" y="10.959"/>
</g>
<g fill="rgb(100%, 100%, 100%)" fill-opacity="1">
<use xlink:href="#glyph-1-0" x="7.9706" y="10.959"/>
</g>
<g fill="rgb(100%, 100%, 100%)" fill-opacity="1">
<use xlink:href="#glyph-1-0" x="13.218933" y="10.959"/>
</g>
<g fill="rgb(100%, 100%, 100%)" fill-opacity="1">
<use xlink:href="#glyph-1-0" x="18.45531" y="10.959"/>
</g>
<g fill="rgb(100%, 100%, 100%)" fill-opacity="1">
<use xlink:href="#glyph-0-1" x="23.703643" y="10.959"/>
</g>
</svg>
