<?xml version="1.0" encoding="UTF-8"?>
<svg xmlns="http://www.w3.org/2000/svg" xmlns:xlink="http://www.w3.org/1999/xlink" width="21.88pt" height="16.418pt" viewBox="0 0 21.88 16.418">
<defs>
<g>
<g id="glyph-0-0">
<path d="M 1.75 -2.078125 C 1.71875 -2.53125 1.296875 -2.640625 1.078125 -2.640625 C 0.84375 -2.640625 0.6875 -2.5 0.59375 -2.3125 C 0.4375 -2.0625 0.359375 -1.75 0.359375 -1.71875 C 0.359375 -1.65625 0.421875 -1.640625 0.46875 -1.640625 C 0.5625 -1.640625 0.578125 -1.671875 0.609375 -1.765625 C 0.71875 -2.25 0.875 -2.4375 1.0625 -2.4375 C 1.28125 -2.4375 1.28125 -2.203125 1.28125 -2.140625 C 1.28125 -2.046875 1.21875 -1.796875 1.171875 -1.640625 C 1.125 -1.46875 1.078125 -1.234375 1.046875 -1.09375 C 1 -0.953125 0.96875 -0.796875 0.921875 -0.640625 C 0.875 -0.46875 0.8125 -0.171875 0.8125 -0.140625 C 0.8125 0 0.90625 0.0625 1.015625 0.0625 C 1.125 0.0625 1.234375 -0.015625 1.28125 -0.109375 C 1.28125 -0.140625 1.34375 -0.34375 1.375 -0.46875 L 1.5 -1 C 1.546875 -1.15625 1.5625 -1.265625 1.609375 -1.40625 C 1.65625 -1.609375 1.859375 -1.921875 2.09375 -2.140625 C 2.203125 -2.265625 2.46875 -2.4375 2.78125 -2.4375 C 3.171875 -2.4375 3.171875 -2.140625 3.171875 -2.015625 C 3.171875 -1.671875 2.921875 -1.03125 2.8125 -0.765625 C 2.765625 -0.65625 2.734375 -0.5625 2.734375 -0.453125 C 2.734375 -0.15625 3 0.0625 3.328125 0.0625 C 3.9375 0.0625 4.234375 -0.734375 4.234375 -0.859375 C 4.234375 -0.875 4.234375 -0.953125 4.125 -0.953125 C 4.046875 -0.953125 4.03125 -0.921875 4 -0.796875 C 3.90625 -0.484375 3.65625 -0.140625 3.34375 -0.140625 C 3.234375 -0.140625 3.1875 -0.234375 3.1875 -0.359375 C 3.1875 -0.46875 3.234375 -0.578125 3.28125 -0.703125 C 3.375 -0.9375 3.640625 -1.609375 3.640625 -1.9375 C 3.640625 -2.4375 3.265625 -2.640625 2.8125 -2.640625 C 2.515625 -2.640625 2.140625 -2.546875 1.75 -2.078125 Z M 1.75 -2.078125 "/>
</g>
<g id="glyph-1-0">
<path d="M 4.65625 10.21875 L 2.546875 5.5625 C 2.46875 5.375 2.40625 5.375 2.359375 5.375 C 2.359375 5.375 2.296875 5.375 2.15625 5.46875 L 1.03125 6.328125 C 0.875 6.453125 0.875 6.484375 0.875 6.53125 C 0.875 6.59375 0.90625 6.65625 0.984375 6.65625 C 1.0625 6.65625 1.265625 6.484375 1.40625 6.390625 C 1.46875 6.328125 1.65625 6.203125 1.78125 6.109375 L 4.140625 11.28125 C 4.21875 11.46875 4.28125 11.46875 4.390625 11.46875 C 4.5625 11.46875 4.609375 11.40625 4.6875 11.234375 L 10.109375 0 C 10.203125 -0.171875 10.203125 -0.21875 10.203125 -0.234375 C 10.203125 -0.359375 10.09375 -0.484375 9.953125 -0.484375 C 9.859375 -0.484375 9.78125 -0.421875 9.6875 -0.234375 Z M 4.65625 10.21875 "/>
</g>
<g id="glyph-2-0">
<path d="M 5.671875 -4.875 C 5.28125 -4.8125 5.140625 -4.515625 5.140625 -4.296875 C 5.140625 -4 5.359375 -3.90625 5.53125 -3.90625 C 5.890625 -3.90625 6.140625 -4.21875 6.140625 -4.546875 C 6.140625 -5.046875 5.5625 -5.265625 5.0625 -5.265625 C 4.34375 -5.265625 3.9375 -4.546875 3.828125 -4.328125 C 3.546875 -5.21875 2.8125 -5.265625 2.59375 -5.265625 C 1.375 -5.265625 0.734375 -3.703125 0.734375 -3.4375 C 0.734375 -3.390625 0.78125 -3.328125 0.859375 -3.328125 C 0.953125 -3.328125 0.984375 -3.40625 1 -3.453125 C 1.40625 -4.78125 2.21875 -5.03125 2.5625 -5.03125 C 3.09375 -5.03125 3.203125 -4.53125 3.203125 -4.25 C 3.203125 -3.984375 3.125 -3.703125 2.984375 -3.125 L 2.578125 -1.5 C 2.40625 -0.78125 2.0625 -0.125 1.421875 -0.125 C 1.359375 -0.125 1.0625 -0.125 0.8125 -0.28125 C 1.25 -0.359375 1.34375 -0.71875 1.34375 -0.859375 C 1.34375 -1.09375 1.15625 -1.25 0.9375 -1.25 C 0.640625 -1.25 0.328125 -0.984375 0.328125 -0.609375 C 0.328125 -0.109375 0.890625 0.125 1.40625 0.125 C 1.984375 0.125 2.390625 -0.328125 2.640625 -0.828125 C 2.828125 -0.125 3.4375 0.125 3.875 0.125 C 5.09375 0.125 5.734375 -1.453125 5.734375 -1.703125 C 5.734375 -1.765625 5.6875 -1.8125 5.625 -1.8125 C 5.515625 -1.8125 5.5 -1.75 5.46875 -1.65625 C 5.140625 -0.609375 4.453125 -0.125 3.90625 -0.125 C 3.484375 -0.125 3.265625 -0.4375 3.265625 -0.921875 C 3.265625 -1.1875 3.3125 -1.375 3.5 -2.15625 L 3.921875 -3.796875 C 4.09375 -4.5 4.5 -5.03125 5.0625 -5.03125 C 5.078125 -5.03125 5.421875 -5.03125 5.671875 -4.875 Z M 5.671875 -4.875 "/>
</g>
</g>
</defs>
<g fill="rgb(100%, 100%, 100%)" fill-opacity="1">
<use xlink:href="#glyph-0-0" x="5.313" y="7.422"/>
</g>
<g fill="rgb(100%, 100%, 100%)" fill-opacity="1">
<use xlink:href="#glyph-1-0" x="3.272" y="2.948"/>
</g>
<path fill="none" stroke-width="0.478" stroke-linecap="butt" stroke-linejoin="miter" stroke="rgb(100%, 100%, 100%)" stroke-opacity="1" stroke-miterlimit="10" d="M -0.000625 -0.0019375 L 6.651719 -0.0019375 " transform="matrix(1, 0, 0, -1, 13.235, 2.709)"/>
<g fill="rgb(100%, 100%, 100%)" fill-opacity="1">
<use xlink:href="#glyph-2-0" x="13.235" y="12.143"/>
</g>
</svg>
