<?xml version="1.0" encoding="UTF-8"?>
<svg xmlns="http://www.w3.org/2000/svg" xmlns:xlink="http://www.w3.org/1999/xlink" width="13.284pt" height="11.955pt" viewBox="0 0 13.284 11.955">
<defs>
<g>
<g id="glyph-0-0">
<path d="M 8.625 -2.984375 C 8.625 -5.1875 6.84375 -6.96875 4.65625 -6.96875 C 2.421875 -6.96875 0.65625 -5.15625 0.65625 -2.984375 C 0.65625 -0.78125 2.453125 0.984375 4.640625 0.984375 C 6.859375 0.984375 8.625 -0.8125 8.625 -2.984375 Z M 0.953125 -3.140625 C 1.078125 -5.15625 2.625 -6.578125 4.5 -6.671875 L 4.5 -3.140625 Z M 4.796875 -6.671875 C 6.671875 -6.578125 8.21875 -5.140625 8.328125 -3.140625 L 4.796875 -3.140625 Z M 4.5 0.6875 C 2.640625 0.59375 1.078125 -0.796875 0.953125 -2.84375 L 4.5 -2.84375 Z M 8.328125 -2.84375 C 8.21875 -0.796875 6.640625 0.59375 4.796875 0.6875 L 4.796875 -2.84375 Z M 8.328125 -2.84375 "/>
</g>
</g>
</defs>
<g fill="rgb(100%, 100%, 100%)" fill-opacity="1">
<use xlink:href="#glyph-0-0" x="1.993" y="8.966"/>
</g>
</svg>
