<?xml version="1.0" encoding="UTF-8"?>
<svg xmlns="http://www.w3.org/2000/svg" xmlns:xlink="http://www.w3.org/1999/xlink" width="15.94pt" height="10.897pt" viewBox="0 0 15.94 10.897">
<defs>
<g>
<g id="glyph-0-0">
<path d="M 7.40625 -6.265625 C 7.546875 -6.34375 7.640625 -6.390625 7.640625 -6.53125 C 7.640625 -6.6875 7.5 -6.765625 7.40625 -6.765625 C 7.3125 -6.765625 7.234375 -6.71875 7.1875 -6.6875 L 0.890625 -3.25 C 0.734375 -3.171875 0.65625 -3.125 0.65625 -2.984375 C 0.65625 -2.84375 0.734375 -2.8125 0.890625 -2.71875 L 7.171875 0.703125 C 7.3125 0.78125 7.34375 0.78125 7.40625 0.78125 C 7.546875 0.78125 7.640625 0.671875 7.640625 0.546875 C 7.640625 0.421875 7.546875 0.375 7.40625 0.28125 L 1.40625 -2.984375 Z M 11.046875 -6.265625 C 11.1875 -6.34375 11.28125 -6.390625 11.28125 -6.53125 C 11.28125 -6.6875 11.15625 -6.765625 11.046875 -6.765625 C 10.96875 -6.765625 10.875 -6.71875 10.828125 -6.6875 L 4.53125 -3.25 C 4.390625 -3.171875 4.296875 -3.125 4.296875 -2.984375 C 4.296875 -2.84375 4.390625 -2.8125 4.53125 -2.71875 L 10.8125 0.703125 C 10.96875 0.78125 11 0.78125 11.046875 0.78125 C 11.203125 0.78125 11.28125 0.671875 11.28125 0.546875 C 11.28125 0.421875 11.1875 0.375 11.046875 0.28125 L 5.046875 -2.984375 Z M 11.046875 -6.265625 "/>
</g>
</g>
</defs>
<g fill="rgb(100%, 100%, 100%)" fill-opacity="1">
<use xlink:href="#glyph-0-0" x="1.993" y="8.437"/>
</g>
</svg>
