<?xml version="1.0" encoding="UTF-8"?>
<svg xmlns="http://www.w3.org/2000/svg" xmlns:xlink="http://www.w3.org/1999/xlink" width="7.306pt" height="14.612pt" viewBox="0 0 7.306 14.612">
<defs>
<g>
<g id="glyph-0-0">
<path d="M 2.640625 0.828125 C 2.640625 0.71875 2.46875 0.671875 2.390625 0.65625 C 2.171875 0.640625 1.859375 0.609375 1.578125 0.078125 C 1.328125 -0.4375 1.328125 -0.984375 1.328125 -1.0625 C 1.328125 -1.734375 1.609375 -2.28125 1.9375 -2.875 C 2.34375 -3.609375 2.65625 -4.1875 2.65625 -4.90625 C 2.65625 -5.953125 2.109375 -6.96875 1.03125 -6.96875 C 0.71875 -6.96875 0.671875 -6.84375 0.671875 -6.796875 C 0.671875 -6.6875 0.890625 -6.640625 0.984375 -6.640625 C 1.625 -6.59375 1.984375 -5.671875 1.984375 -4.90625 C 1.984375 -4.25 1.703125 -3.6875 1.375 -3.109375 C 0.96875 -2.359375 0.65625 -1.796875 0.65625 -1.0625 C 0.65625 -0.078125 1.15625 0.984375 2.296875 0.984375 C 2.546875 0.984375 2.640625 0.890625 2.640625 0.828125 Z M 2.640625 0.828125 "/>
</g>
</g>
</defs>
<g fill="rgb(100%, 100%, 100%)" fill-opacity="1">
<use xlink:href="#glyph-0-0" x="1.993" y="10.295"/>
</g>
</svg>
