<?xml version="1.0" encoding="UTF-8"?>
<svg xmlns="http://www.w3.org/2000/svg" xmlns:xlink="http://www.w3.org/1999/xlink" width="13.09pt" height="8.3pt" viewBox="0 0 13.09 8.3">
<defs>
<g>
<g id="glyph-0-0">
<path d="M 8.0625 -3.875 C 8.234375 -3.875 8.453125 -3.875 8.453125 -4.09375 C 8.453125 -4.3125 8.25 -4.3125 8.0625 -4.3125 L 1.03125 -4.3125 C 0.859375 -4.3125 0.640625 -4.3125 0.640625 -4.09375 C 0.640625 -3.875 0.84375 -3.875 1.03125 -3.875 Z M 8.0625 -1.65625 C 8.234375 -1.65625 8.453125 -1.65625 8.453125 -1.859375 C 8.453125 -2.09375 8.25 -2.09375 8.0625 -2.09375 L 1.03125 -2.09375 C 0.859375 -2.09375 0.640625 -2.09375 0.640625 -1.875 C 0.640625 -1.65625 0.84375 -1.65625 1.03125 -1.65625 Z M 8.0625 -1.65625 "/>
</g>
</g>
</defs>
<g fill="rgb(100%, 100%, 100%)" fill-opacity="1">
<use xlink:href="#glyph-0-0" x="1.993" y="6.307"/>
</g>
</svg>
