<?xml version="1.0" encoding="UTF-8"?>
<svg xmlns="http://www.w3.org/2000/svg" xmlns:xlink="http://www.w3.org/1999/xlink" width="13.284pt" height="14.612pt" viewBox="0 0 13.284 14.612">
<defs>
<g>
<g id="glyph-0-0">
<path d="M 7.53125 -8.09375 C 7.625 -8.265625 7.625 -8.28125 7.625 -8.3125 C 7.625 -8.40625 7.546875 -8.5625 7.390625 -8.5625 C 7.25 -8.5625 7.203125 -8.484375 7.125 -8.3125 L 1.75 2.109375 C 1.65625 2.28125 1.65625 2.3125 1.65625 2.34375 C 1.65625 2.4375 1.75 2.578125 1.90625 2.578125 C 2.046875 2.578125 2.078125 2.515625 2.15625 2.34375 Z M 7.53125 -8.09375 "/>
</g>
<g id="glyph-0-1">
<path d="M 7.875 -5.96875 C 8.078125 -5.96875 8.296875 -5.96875 8.296875 -6.21875 C 8.296875 -6.453125 8.078125 -6.453125 7.875 -6.453125 L 4.65625 -6.453125 C 2.625 -6.453125 0.984375 -4.90625 0.984375 -2.984375 C 0.984375 -1.078125 2.625 0.484375 4.65625 0.484375 L 7.875 0.484375 C 8.078125 0.484375 8.296875 0.484375 8.296875 0.234375 C 8.296875 0 8.078125 0 7.875 0 L 4.6875 0 C 2.828125 0 1.46875 -1.390625 1.46875 -2.984375 C 1.46875 -4.59375 2.828125 -5.96875 4.6875 -5.96875 Z M 7.875 -5.96875 "/>
</g>
</g>
</defs>
<g fill="rgb(100%, 100%, 100%)" fill-opacity="1">
<use xlink:href="#glyph-0-0" x="1.993" y="10.295"/>
<use xlink:href="#glyph-0-1" x="1.993" y="10.295"/>
</g>
</svg>
