<?xml version="1.0" encoding="UTF-8"?>
<svg xmlns="http://www.w3.org/2000/svg" xmlns:xlink="http://www.w3.org/1999/xlink" width="11.955pt" height="12.261pt" viewBox="0 0 11.955 12.261">
<defs>
<g>
<g id="glyph-0-0">
<path d="M 4.609375 -4.90625 C 4.609375 -5.265625 4.328125 -5.546875 3.984375 -5.546875 C 3.640625 -5.546875 3.34375 -5.265625 3.34375 -4.90625 C 3.34375 -4.5625 3.640625 -4.28125 3.984375 -4.28125 C 4.3125 -4.28125 4.609375 -4.546875 4.609375 -4.90625 Z M 7.609375 0.265625 C 7.609375 -0.078125 7.3125 -0.375 6.96875 -0.375 C 6.625 -0.375 6.328125 -0.078125 6.328125 0.265625 C 6.328125 0.609375 6.625 0.890625 6.96875 0.890625 C 7.3125 0.890625 7.609375 0.609375 7.609375 0.265625 Z M 1.625 0.265625 C 1.625 -0.078125 1.34375 -0.375 0.984375 -0.375 C 0.640625 -0.375 0.359375 -0.078125 0.359375 0.265625 C 0.359375 0.609375 0.640625 0.890625 0.984375 0.890625 C 1.34375 0.890625 1.625 0.609375 1.625 0.265625 Z M 1.625 0.265625 "/>
</g>
</g>
</defs>
<g fill="rgb(100%, 100%, 100%)" fill-opacity="1">
<use xlink:href="#glyph-0-0" x="1.993" y="10.268"/>
</g>
</svg>
